<svg data-v-423bf9ae="" xmlns="http://www.w3.org/2000/svg" viewBox="0 0 211 90" class="iconLeft"><!----><!----><!----><g data-v-423bf9ae="" id="f293ad0a-37ec-4dd7-b7fa-1ed03cf9c151" fill="#000000" transform="matrix(5.357142948374458,0,0,5.357142948374458,107.00000506365785,0.5357144991962173)"><path d="M4.68 13.90L0.56 13.90L0.56 13.61L1.85 13.40L1.85 3.21L0.56 3.01L0.56 2.70L4.68 2.70L4.68 3.01L3.39 3.21L3.39 8.25L7.94 3.60L6.41 3.01L6.41 2.70L9.65 2.70L9.65 3.01L8.50 3.60L5.32 6.79L9.80 13.40L10.75 13.61L10.75 13.90L6.62 13.90L6.62 13.61L7.90 13.41L4.23 7.88L3.39 8.74L3.39 13.40L4.68 13.61L4.68 13.90ZM19.04 13.90L10.79 13.90L10.79 13.57L17.35 3.05L13.01 3.05L11.56 5.85L11.20 5.85L11.54 2.70L19.24 2.70L19.24 3.05L12.67 13.57L17.57 13.57L19.01 10.56L19.38 10.56L19.04 13.90Z"></path></g><defs data-v-423bf9ae=""><linearGradient data-v-423bf9ae="" gradientTransform="rotate(25)" id="bddf4e97-aa06-42cf-8b43-a354c6d18306" x1="0%" y1="0%" x2="100%" y2="0%"><stop data-v-423bf9ae="" offset="0%" style="stop-color: rgb(233, 142, 13); stop-opacity: 1;"></stop><stop data-v-423bf9ae="" offset="100%" style="stop-color: rgb(21, 54, 241); stop-opacity: 1;"></stop></linearGradient></defs><g data-v-423bf9ae="" id="59c3af39-79cb-435e-8756-a016e3c50a38" transform="matrix(2.8125,0,0,2.8125,0,0)" stroke="none" fill="url(#bddf4e97-aa06-42cf-8b43-a354c6d18306)"><path d="M29.625 1l-3.099 3.172H4.054v23.657h22.472L29.625 31H1V1h28.625M32 0H0v32h32l-5.054-5.172H5.054V5.172h21.893L32 0z"></path><path d="M21.038 10.962v10.076H10.962V10.962h10.076m1-1H9.962v12.076h12.076V9.962z"></path></g><!----></svg>